<svg width="28" height="28" viewBox="0 0 28 28" fill="white"
    xmlns="http://www.w3.org/2000/svg">
    <path d="M14 0C11.2311 0 8.52431 0.821086 6.22202 2.35943C3.91973 3.89777 2.12532 6.08427 1.06569 8.64243C0.00606596 11.2006 -0.271181 14.0155 0.269012 16.7313C0.809205 19.447 2.14258 21.9416 4.10051 23.8995C6.05845 25.8574 8.55301 27.1908 11.2687 27.731C13.9845 28.2712 16.7994 27.9939 19.3576 26.9343C21.9157 25.8747 24.1022 24.0803 25.6406 21.778C27.1789 19.4757 28 16.7689 28 14C28 10.287 26.525 6.72601 23.8995 4.1005C21.274 1.475 17.713 0 14 0V0ZM14 26C11.6266 26 9.30655 25.2962 7.33316 23.9776C5.35977 22.6591 3.8217 20.7849 2.91345 18.5922C2.0052 16.3995 1.76756 13.9867 2.23058 11.6589C2.69361 9.33114 3.83649 7.19295 5.51472 5.51472C7.19295 3.83649 9.33115 2.6936 11.6589 2.23058C13.9867 1.76755 16.3995 2.00519 18.5922 2.91345C20.7849 3.8217 22.6591 5.35977 23.9776 7.33316C25.2962 9.30655 26 11.6266 26 14C26 17.1826 24.7357 20.2348 22.4853 22.4853C20.2349 24.7357 17.1826 26 14 26ZM19.71 9.71L15.41 14L19.71 18.29C19.8037 18.383 19.8781 18.4936 19.9289 18.6154C19.9797 18.7373 20.0058 18.868 20.0058 19C20.0058 19.132 19.9797 19.2627 19.9289 19.3846C19.8781 19.5064 19.8037 19.617 19.71 19.71C19.617 19.8037 19.5064 19.8781 19.3846 19.9289C19.2627 19.9797 19.132 20.0058 19 20.0058C18.868 20.0058 18.7373 19.9797 18.6154 19.9289C18.4936 19.8781 18.383 19.8037 18.29 19.71L14 15.41L9.71001 19.71C9.61704 19.8037 9.50644 19.8781 9.38458 19.9289C9.26272 19.9797 9.13202 20.0058 9.00001 20.0058C8.86799 20.0058 8.73729 19.9797 8.61543 19.9289C8.49357 19.8781 8.38297 19.8037 8.29001 19.71C8.19628 19.617 8.12188 19.5064 8.07112 19.3846C8.02035 19.2627 7.99421 19.132 7.99421 19C7.99421 18.868 8.02035 18.7373 8.07112 18.6154C8.12188 18.4936 8.19628 18.383 8.29001 18.29L12.59 14L8.29001 9.71C8.1017 9.5217 7.99591 9.2663 7.99591 9C7.99591 8.7337 8.1017 8.4783 8.29001 8.29C8.47831 8.1017 8.73371 7.99591 9.00001 7.99591C9.26631 7.99591 9.5217 8.1017 9.71001 8.29L14 12.59L18.29 8.29C18.4783 8.1017 18.7337 7.99591 19 7.99591C19.2663 7.99591 19.5217 8.1017 19.71 8.29C19.8983 8.4783 20.0041 8.7337 20.0041 9C20.0041 9.2663 19.8983 9.5217 19.71 9.71V9.71Z" />
</svg>
