<svg width="289" height="132" viewBox="0 0 289 132" fill="none" xmlns="http://www.w3.org/2000/svg">
<path d="M276.024 40.3028C269.404 34.272 261.314 30.3741 251.606 28.5354C238.441 26.1084 224.394 28.2412 209.464 35.081C199.535 39.5674 187.768 46.9955 173.941 57.5862C178.134 62.0725 182.914 66.7794 188.356 71.6335C195.343 66.4117 199.903 62.955 201.963 61.4841C207.184 57.8804 211.965 55.0121 216.304 52.8057C227.336 47.2897 238.368 45.4511 249.253 47.2162C259.99 48.9077 267.713 53.0999 272.493 59.7926C276.318 65.0143 278.156 71.7806 278.083 79.9442C278.009 85.7544 276.906 92.0793 274.847 98.772C273.817 102.155 272.861 105.023 271.831 107.156C278.009 103.258 282.643 97.2276 285.732 89.0639C288.968 80.6061 289.85 71.6335 288.159 62.3667C286.688 53.6882 282.643 46.3336 276.024 40.3028Z" fill="white"/>
<path d="M136.287 30.1533C133.198 32.3597 130.403 34.9338 127.976 37.8757C126.137 40.1556 124.519 42.5091 123.195 45.0832C123.563 45.4509 124.004 45.8187 124.446 46.1864C126.137 47.7309 127.829 49.3489 129.667 50.9669C133.492 54.6442 139.155 60.3808 146.583 68.1767L152.099 73.9133C142.759 80.5325 133.712 86.2691 124.887 91.1231C126.873 93.9914 129.153 96.6391 131.874 99.2132C134.448 101.714 137.243 103.773 140.037 105.465C148.495 100.463 157.321 94.7269 166.44 88.1077C175.854 96.9333 184.459 103.405 192.329 107.597C203.508 113.628 214.613 115.908 225.572 114.511C234.177 113.481 242.046 110.098 249.18 104.509C256.24 98.7719 261.242 91.8586 264.183 83.6949C262.492 85.1659 260.138 86.7839 257.196 88.4754C251.239 91.9321 245.061 94.3592 238.736 95.7565C218.291 100.243 199.683 93.6237 182.621 75.9726H182.694C178.061 71.7805 173.06 66.9264 167.691 61.4105L160.925 54.35C152.834 45.8922 146.583 39.5672 142.17 35.5222C141.214 34.5661 140.258 33.6835 139.302 32.801C138.346 31.8449 137.316 31.0359 136.287 30.1533Z" fill="white"/>
<path d="M29.9374 37.8758C34.4238 32.4333 40.1604 28.2412 47.0737 25.2994C53.9135 22.4311 61.6359 20.9601 70.0201 20.9601H70.0937C82.4494 20.9601 94.8052 24.9316 107.234 32.8746C108.779 30.227 110.544 27.7264 112.603 25.2258C114.883 22.4311 117.457 19.7834 120.105 17.5035C103.925 6.54508 87.2299 1.02911 70.2407 0.955566H70.0201C58.6205 0.955566 48.0298 3.08841 38.4688 7.20699C28.9813 11.3991 21.0383 17.4299 14.5663 25.2258C8.3884 32.8011 4.12273 41.406 1.84279 51.0405C-0.510684 60.7486 -0.58423 70.6774 1.47506 80.8267C3.90209 93.256 10.1535 104.141 20.0822 113.555C30.011 122.969 41.4106 128.705 54.2812 130.691C57.6643 131.279 61.1946 131.5 64.7983 131.5C72.5207 131.5 80.8314 130.176 89.804 127.676C93.1872 126.646 96.938 125.469 101.057 123.925C104.072 122.822 107.308 121.498 110.838 120.027C111.427 119.806 112.015 119.586 112.677 119.291C114.221 118.629 115.839 117.968 117.384 117.306C118.487 116.791 119.517 116.276 120.546 115.835C119.737 115.099 118.928 114.364 118.119 113.555C113.633 109.363 109.956 104.876 106.94 100.096C106.278 100.316 105.616 100.611 104.955 100.978C104.513 101.125 104.072 101.346 103.557 101.567C99.5121 103.185 95.8348 104.656 92.3782 105.906C88.3331 107.377 84.7294 108.48 81.5669 109.289C72.5942 111.569 64.5041 112.157 57.3702 111.054C48.6917 109.657 40.8223 105.759 33.9089 99.2133C26.922 92.7412 22.6564 85.313 20.9648 76.9288C19.5674 69.7213 19.5674 62.7344 21.1854 55.9681C22.7299 49.1283 25.5982 43.1711 29.9374 37.8758Z" fill="white"/>
</svg>
