<svg width="87" height="84" viewBox="0 0 87 84" fill="none" xmlns="http://www.w3.org/2000/svg">
<path d="M0 80.1699H86.1217V83.685H0V80.1699Z" fill="white"/>
<path d="M83.2217 77.795V73.7528C83.2217 72.1708 82.2547 70.7651 80.7613 70.2377C80.7613 70.0616 80.8489 69.8865 80.8489 69.7104V66.6341C80.8489 64.5249 79.1794 62.8555 77.0702 62.8555H52.4641C50.3548 62.8555 48.6854 64.5249 48.6854 66.6341V69.7104C48.6854 69.8865 48.6854 70.0616 48.7729 70.2377C47.3671 70.765 46.3125 72.1708 46.3125 73.7528V77.795H49.8276V73.7528C49.8276 73.5766 49.9151 73.4891 50.0912 73.4891H79.533C79.7091 73.4891 79.7967 73.5766 79.7967 73.7528V77.795H83.2217ZM52.2006 66.6351C52.2006 66.459 52.2882 66.3714 52.4643 66.3714H77.159C77.3351 66.3714 77.4226 66.459 77.4226 66.6351V69.7113C77.4226 69.8874 77.3351 69.975 77.159 69.975L52.4643 69.9739C52.2882 69.9739 52.2006 69.8864 52.2006 69.7103V66.6351Z" fill="white"/>
<path d="M22.0582 68.7434L20.8275 67.5126L52.2888 36.0513L54.8378 38.6003L54.4866 38.9515C53.0808 40.3573 53.0808 42.5552 54.4866 43.9608L58.4413 47.9156C59.1447 48.619 60.0232 48.9702 60.9017 48.9702C61.8688 48.9702 62.7473 48.619 63.3622 47.9156L79.9713 31.3064C81.3771 29.9006 81.3771 27.7028 79.9713 26.2971L76.0166 22.3424C75.3132 21.6389 74.4347 21.2878 73.5562 21.2878C72.6777 21.2878 71.7106 21.6389 71.0957 22.3424L70.7445 22.6935L58.0891 10.2155L58.4402 9.86429C59.1437 9.16087 59.4949 8.28237 59.4949 7.40386C59.4949 6.43679 59.1437 5.55828 58.4402 4.94344L54.4855 0.988698C53.1672 -0.329566 50.7943 -0.329566 49.4762 0.988698L32.8681 17.4218C31.4623 18.8276 31.4623 21.0254 32.8681 22.4311L36.8228 26.3858C37.5263 27.0892 38.4048 27.4404 39.2833 27.4404C40.1618 27.4404 41.1289 27.0892 41.7437 26.3858L42.0949 26.0346L44.6439 28.5836L13.3587 60.0449L12.1279 58.8142L4.39453 66.5476L14.4134 76.5665L22.0582 68.7434ZM40.3379 43.0824L37.7889 40.5334L40.3379 37.9844L42.8869 40.5334L40.3379 43.0824ZM73.5573 24.8912L77.512 28.846L60.9029 45.4551L56.9481 41.4129L73.5573 24.8912ZM39.3722 23.9241L35.4174 19.8819L52.0266 3.27276L55.9813 7.2275L39.3722 23.9241ZM44.7329 23.573L55.6303 12.6756L68.2847 25.33L57.2998 36.2284L47.2809 26.2095L44.7329 23.573ZM49.8297 33.5919L45.3475 38.073L42.7985 35.524L47.2807 31.0418L49.4774 33.2386L49.8297 33.5919ZM35.3297 42.9948L37.8787 45.5438L18.3683 65.0531L15.8193 62.5041L35.3297 42.9948ZM12.1292 63.7347L17.1385 68.744L14.4144 71.4681L9.40513 66.4588L12.1292 63.7347Z" fill="white"/>
<path d="M51.582 22.6193L54.0675 20.1328L60.7172 26.7815L58.2318 29.268L51.582 22.6193Z" fill="white"/>
<path d="M78.8281 48.9727H86.5615V52.4877H78.8281V48.9727Z" fill="white"/>
<path d="M76.7129 43.4651L83.2396 39.3164L85.1259 42.2833L78.5991 46.4319L76.7129 43.4651Z" fill="white"/>
<path d="M76.6836 57.9775L78.5698 55.0117L85.0955 59.1625L83.2093 62.1283L76.6836 57.9775Z" fill="white"/>
<path d="M44.2031 48.9727H51.9365V52.4877H44.2031V48.9727Z" fill="white"/>
<path d="M45.6426 59.1469L52.1683 54.9961L54.0545 57.9619L47.5288 62.1127L45.6426 59.1469Z" fill="white"/>
</svg>
