<svg width="22" height="25" viewBox="0 0 22 25" fill="none" xmlns="http://www.w3.org/2000/svg">
<path d="M7.44462 16.5074L7.07348 16.6166C3.44941 17.6645 1.1025 20.3607 0.109159 24.5088L0 24.9891H11.0359H11.4289V24.2031H11.0359H1.00426C1.9976 20.5354 4.0607 18.2976 7.29179 17.3589L7.66293 17.2497L7.44462 16.5074Z" fill="#353A40"/>
<path d="M13.4921 16.5074L13.2738 17.2606L13.6449 17.3698C16.876 18.3086 18.9391 20.5354 19.9325 24.214H9.90078H9.50781V25H9.90078H20.9367L20.8276 24.5197C19.8451 20.3607 17.4873 17.6754 13.8632 16.6275L13.4921 16.5074Z" fill="#353A40"/>
<path d="M4.10503 9.24841C3.69023 9.27024 3.30818 9.49947 3.06803 9.87061C2.82788 10.2418 2.72963 10.733 2.78421 11.3115C2.88246 12.4031 3.1226 13.2 3.69023 13.6257C3.85397 13.7567 4.06137 13.8877 4.34518 13.9313C4.51983 13.9641 4.71632 13.9313 4.91281 13.844C5.06563 14.357 5.26211 14.8264 5.49135 15.2194C6.09172 16.2236 6.96499 17.0205 7.83826 17.5663C8.71152 18.1121 9.57388 18.4286 10.2725 18.4286H10.6655V17.6427H10.2725C9.83586 17.6427 9.039 17.3916 8.25306 16.9004C7.46712 16.4092 6.68118 15.6888 6.16813 14.8155C5.60051 13.8549 5.26211 12.3158 5.20753 10.209V10.1872V10.1653C5.17478 9.89245 5.07654 9.64138 4.86914 9.45581C4.65083 9.29207 4.37793 9.23749 4.10503 9.24841ZM4.15961 10.0344C4.2906 10.0234 4.32335 10.0453 4.33426 10.0671C4.3561 10.0889 4.38884 10.1326 4.41068 10.2745C4.44342 11.3333 4.53075 12.2612 4.70541 13.0799C4.58533 13.1781 4.51983 13.1781 4.45434 13.1672C4.38884 13.1563 4.27969 13.1017 4.1487 13.0035C3.90855 12.8288 3.63565 12.2394 3.54832 11.246C3.50466 10.7875 3.59199 10.4819 3.71206 10.2963C3.84305 10.1108 3.98496 10.0453 4.15961 10.0344Z" fill="#353A40"/>
<path d="M16.8316 9.24842C16.5696 9.22658 16.2858 9.29208 16.0893 9.47765C15.8819 9.6523 15.7836 9.91428 15.7509 10.1872V10.209V10.2308C15.6963 12.3376 15.3579 13.8767 14.7903 14.8373C14.2773 15.7106 13.4913 16.4311 12.7054 16.9223C11.9194 17.4135 11.1226 17.6645 10.6859 17.6645H10.293V18.4505H10.6859C11.3846 18.4505 12.2469 18.1339 13.1202 17.5881C13.9934 17.0423 14.8667 16.2455 15.4671 15.2412C15.6963 14.8483 15.8928 14.3898 16.0456 13.8658C16.2421 13.9422 16.4386 13.975 16.6133 13.9532C16.8861 13.9095 17.0935 13.7676 17.2682 13.6475C17.8358 13.2218 18.076 12.4249 18.1742 11.3333C18.2288 10.7548 18.1306 10.2636 17.8904 9.89245C17.6503 9.52131 17.2464 9.28116 16.8316 9.24842ZM16.777 10.0344C16.9516 10.0453 17.0936 10.1217 17.2027 10.2963C17.3228 10.4819 17.4101 10.7876 17.3664 11.246C17.2791 12.2394 17.0062 12.8179 16.7661 13.0035C16.646 13.1017 16.5368 13.1563 16.4604 13.1672C16.3949 13.1781 16.3404 13.1781 16.2094 13.0799C16.3731 12.2721 16.4713 11.3333 16.5041 10.2745C16.5259 10.1326 16.5587 10.078 16.5805 10.0671C16.6242 10.0453 16.6569 10.0234 16.777 10.0344Z" fill="#353A40"/>
<path d="M7.64136 5.3078L7.30297 6.24657C6.86633 7.44731 6.04764 8.49523 4.7814 9.40125L4.46484 9.63048L4.92331 10.2636L5.23987 10.0344C6.33146 9.24843 7.16106 8.32058 7.69594 7.28357C9.09317 9.66323 11.8985 10.9622 15.9483 11.1696L16.3413 11.1915L16.385 10.4055L15.992 10.3837C11.7021 10.1654 9.12592 8.76813 8.03433 6.22473L7.64136 5.3078Z" fill="#353A40"/>
<path d="M10.3379 1.3999C8.10018 1.3999 6.34273 2.31683 5.18565 3.79048C4.02856 5.2532 3.46094 7.2508 3.46094 9.42306V9.81603H4.24688V9.42306C4.24688 7.38179 4.78176 5.56976 5.79693 4.27077C6.81211 2.97179 8.29666 2.18584 10.3379 2.18584H10.7309V1.3999H10.3379Z" fill="#353A40"/>
<path d="M10.2168 1.3999V2.18584H10.6098C12.6401 2.18584 14.1356 2.9827 15.1508 4.27077C16.1659 5.56976 16.7008 7.38179 16.7008 9.42306V9.81603H17.4868V9.42306C17.4868 7.2508 16.9191 5.2532 15.7621 3.79048C14.605 2.32775 12.8475 1.3999 10.6098 1.3999H10.2168Z" fill="#353A40"/>
<path d="M12.5961 0.00268045C11.832 0.0135963 11.2534 0.177334 10.9914 0.286493C10.4238 0.526642 9.98718 0.941444 9.76886 1.48724L9.62695 1.84746L10.3583 2.14219L10.5002 1.78197C10.6421 1.43266 10.8823 1.19251 11.2971 1.01786C11.4281 0.963276 12.3341 0.712211 13.3165 0.843201C14.2989 0.974192 15.4124 1.44357 16.2638 2.80806C16.9624 3.92147 17.3226 4.91482 17.8466 5.73351C18.2832 6.41029 18.8836 6.94517 19.8115 7.22898C19.4621 7.60012 19.1128 7.85118 18.7744 7.99309C18.3051 8.17866 17.8466 8.17866 17.3336 7.97126L16.9733 7.82935L16.6895 8.56072L17.0497 8.70262C17.7265 8.9646 18.4251 8.97552 19.0692 8.71354C19.7132 8.45156 20.3027 7.94943 20.8375 7.22898L21.2305 6.70502L20.5756 6.60678C19.4294 6.43212 18.96 6.01732 18.5016 5.3187C18.0431 4.60917 17.6719 3.594 16.9188 2.40417C15.9363 0.843202 14.5718 0.231913 13.4148 0.0790911C13.1309 0.013596 12.858 -0.00823541 12.5961 0.00268045Z" fill="#353A40"/>
</svg>
