<svg width="21" height="25" fill="none" xmlns="http://www.w3.org/2000/svg"><path d="m7.445 15.623-.372.11C3.45 16.78 1.103 19.476.11 23.624l-.109.48h11.429v-.786H.993c.994-3.668 3.057-5.905 6.288-6.844l.371-.11-.207-.742z" fill="#353A40"/><path d="m13.492 15.623-.218.754.37.109c3.232.938 5.295 3.165 6.289 6.844H9.508v.786h11.429l-.11-.48c-.982-4.16-3.34-6.845-6.964-7.893l-.37-.12zM4.105 8.364a1.325 1.325 0 0 0-1.037.622c-.24.372-.338.863-.284 1.441.098 1.092.339 1.889.906 2.315.164.13.371.261.655.305.175.033.371 0 .568-.087.153.513.35.982.578 1.375.6 1.004 1.474 1.801 2.347 2.347.874.546 1.736.863 2.435.863h.393v-.786h-.393c-.437 0-1.234-.252-2.02-.743-.786-.49-1.572-1.211-2.085-2.085-.567-.96-.906-2.5-.96-4.606V9.28c-.033-.273-.131-.524-.339-.71-.218-.163-.491-.218-.764-.207zm.055.786c.13-.01.163.011.174.033.022.022.055.065.077.207.032 1.06.12 1.987.294 2.806-.12.098-.185.098-.25.087-.066-.01-.175-.065-.306-.164-.24-.174-.513-.764-.6-1.757-.044-.459.043-.764.163-.95a.535.535 0 0 1 .448-.262z" fill="#353A40"/><path d="M16.832 8.364c-.262-.022-.546.044-.743.23-.207.174-.305.436-.338.709v.044c-.055 2.106-.393 3.646-.96 4.606-.514.873-1.3 1.594-2.086 2.085-.786.491-1.582.742-2.02.742h-.392v.786h.393c.699 0 1.56-.316 2.434-.862.873-.546 1.747-1.343 2.347-2.347.23-.393.426-.851.579-1.375.196.076.393.109.567.087.273-.044.48-.186.655-.306.568-.425.808-1.222.906-2.314.055-.578-.043-1.07-.284-1.44-.262-.383-.655-.612-1.058-.645zm-.055.786c.175.011.317.088.426.262.12.186.207.491.163.95-.087.993-.36 1.572-.6 1.757a.702.702 0 0 1-.306.164c-.065.011-.12.011-.25-.087.163-.808.261-1.747.294-2.806.022-.142.055-.196.076-.207.033-.022.066-.044.197-.033z" fill="#353A40"/><path d="m7.314 4.74-.219.622C6.67 6.552 5.971 7.185 4.88 7.415l-.164.032-.088.142c-.218.36-.218.797-.218 1.474v.393l.786-.011v-.393c-.01-.502.055-.808.077-.939 1.026-.284 1.822-.95 2.325-1.943 1.484 1.277 4.17 1.943 8.023 2.172.065.262.109.579.109.95v.393h.786v-.393c0-.557-.077-1.048-.23-1.463l-.087-.24-.25-.01c-4.334-.219-7.063-1.081-8.177-2.337l-.458-.502z" fill="#353A40"/><path d="M9.431.003c-.48.01-.928.076-1.31.185-1.124.328-1.91.994-2.26 1.943-.993.273-1.735.994-2.117 2.053-.404 1.135-.459 2.652-.207 4.573l.054.393.775-.098-.054-.393c-.24-1.856-.175-3.264.163-4.214.339-.95.884-1.43 1.758-1.604l.24-.044.065-.229c.219-.808.765-1.32 1.79-1.616.797-.229 2.162-.207 3.494.153 1.331.36 2.652 1.06 3.46 2.074 1.386 1.736 1.517 3.744 1.288 5.349l-.055.382.776.11.054-.383c.251-1.735.098-3.995-1.452-5.949-.96-1.2-2.412-1.943-3.864-2.347A8.86 8.86 0 0 0 9.431.003zM9.727 12.065a1.67 1.67 0 0 0-.393.076c-.503.142-.786.502-1.016.732-.229.229-.382.36-.753.36l-.23.71c.438.316.841.523 1.234.61.393.088.808.033 1.125-.174.305-.197.556-.273.786-.273.24 0 .48.076.775.273.174.109.316.207.49.273.176.065.383.087.58.043.382-.098.676-.338 1.288-.753l-.219-.71c-.36 0-.513-.13-.753-.36-.23-.229-.513-.578-1.015-.73-.415-.12-.819-.11-1.157.054a1.374 1.374 0 0 0-.742-.131zm.25.764c.11.01.175.054.24.12l.263.251.262-.251c.13-.12.294-.164.666-.055.24.066.414.273.687.535.11.11.251.219.404.317-.185.12-.306.185-.36.196-.055.011-.044.011-.11-.01-.065-.023-.174-.099-.348-.208-.383-.251-.786-.404-1.201-.404-.415 0-.83.142-1.223.404-.142.087-.284.12-.535.065-.076-.01-.153-.043-.24-.076.131-.087.262-.186.36-.284.273-.273.448-.47.688-.535.207-.054.338-.076.448-.065z" fill="#353A40"/></svg>