<svg width="24" height="24" viewBox="0 0 24 24" fill="none" xmlns="http://www.w3.org/2000/svg">
<path d="M12 0C5.38317 0 0 5.38317 0 12C0 18.6168 5.38317 24 12 24C18.6168 24 24 18.6168 24 12C24 5.38317 18.6168 0 12 0ZM12 22.9905C9.34358 22.9905 6.90488 22.0432 5.00258 20.4686C5.77588 18.3214 7.83971 16.8468 10.1374 16.8468H13.8273C16.1357 16.8468 18.2063 18.3284 18.9769 20.4855C17.078 22.0496 14.647 22.9905 12 22.9905ZM19.7744 19.761C18.7612 17.4178 16.4218 15.8372 13.8276 15.8372H10.1374C7.55502 15.8372 5.22299 17.4098 4.20774 19.7421C2.23242 17.754 1.00953 15.0172 1.00953 12C1.00953 5.93976 5.93976 1.00953 12 1.00953C18.0602 1.00953 22.9905 5.93976 22.9905 12C22.9905 15.0266 21.7605 17.7715 19.7744 19.761Z" fill="#353A40"/>
<path d="M12.0004 5.84082C9.36179 5.84082 7.21484 7.98743 7.21484 10.6263C7.21484 13.2653 9.36145 15.4119 12.0004 15.4119C14.6393 15.4119 16.7859 13.2653 16.7859 10.6263C16.7859 7.98743 14.639 5.84082 12.0004 5.84082ZM12.0004 14.4023C9.91838 14.4023 8.22438 12.7083 8.22438 10.6263C8.22438 8.54435 9.91838 6.85035 12.0004 6.85035C14.0824 6.85035 15.7764 8.54435 15.7764 10.6263C15.7764 12.7083 14.0824 14.4023 12.0004 14.4023Z" fill="#353A40"/>
</svg>
