<svg width="24" height="24" viewBox="0 0 24 24" fill="none" xmlns="http://www.w3.org/2000/svg">
<path d="M12 0C9.62663 0 7.30655 0.703788 5.33316 2.02236C3.35977 3.34094 1.8217 5.21508 0.913451 7.4078C0.00519929 9.60051 -0.232441 12.0133 0.230582 14.3411C0.693605 16.6689 1.83649 18.807 3.51472 20.4853C5.19295 22.1635 7.33115 23.3064 9.65892 23.7694C11.9867 24.2324 14.3995 23.9948 16.5922 23.0866C18.7849 22.1783 20.6591 20.6402 21.9776 18.6668C23.2962 16.6935 24 14.3734 24 12C23.9964 8.81851 22.7309 5.76838 20.4813 3.51873C18.2316 1.26908 15.1815 0.00363059 12 0V0ZM22.6502 9.66804H17.4376C16.835 8.27747 15.7241 7.16953 14.332 6.57064V1.35802C16.3659 1.80712 18.2294 2.82779 19.703 4.29994C21.1766 5.7721 22.1991 7.6345 22.6502 9.66804V9.66804ZM22.9026 12C22.9021 12.4125 22.8783 12.8247 22.8313 13.2346H17.7778C17.9536 12.4209 17.9536 11.5791 17.7778 10.7654H22.8313C22.8783 11.1753 22.9021 11.5875 22.9026 12V12ZM12 16.8148C11.0477 16.8148 10.1168 16.5324 9.32504 16.0034C8.53324 15.4743 7.91612 14.7223 7.5517 13.8425C7.18727 12.9628 7.09192 11.9947 7.2777 11.0607C7.46349 10.1267 7.92205 9.26877 8.59542 8.59541C9.26878 7.92205 10.1267 7.46348 11.0607 7.2777C11.9947 7.09192 12.9628 7.18727 13.8426 7.55169C14.7223 7.91611 15.4743 8.53324 16.0034 9.32503C16.5324 10.1168 16.8148 11.0477 16.8148 12C16.8134 13.2765 16.3056 14.5003 15.403 15.403C14.5003 16.3056 13.2765 16.8134 12 16.8148V16.8148ZM13.2346 1.17695V6.22222C12.4209 6.04644 11.5791 6.04644 10.7654 6.22222V1.16872C11.5857 1.07289 12.4143 1.07289 13.2346 1.16872V1.17695ZM9.66804 1.35802V6.57064C8.27899 7.17125 7.17126 8.27898 6.57065 9.66804H1.35803C1.80713 7.63405 2.82779 5.77064 4.29995 4.29703C5.7721 2.82342 7.63451 1.80091 9.66804 1.34979V1.35802ZM6.22223 13.2346H1.16873C1.0729 12.4143 1.0729 11.5857 1.16873 10.7654H6.22223C6.04644 11.5791 6.04644 12.4209 6.22223 13.2346V13.2346ZM1.35254 14.332H6.56516C7.16709 15.722 8.27692 16.8299 9.66804 17.4294V22.642C7.63406 22.1929 5.77065 21.1722 4.29703 19.7001C2.82342 18.2279 1.80091 16.3655 1.3498 14.332H1.35254ZM10.7682 22.8368V17.7778C11.5818 17.9536 12.4237 17.9536 13.2373 17.7778V22.8313C12.4171 22.9271 11.5884 22.9271 10.7682 22.8313V22.8368ZM14.3347 22.6557V17.4431C15.7252 16.8386 16.8323 15.7257 17.4294 14.332H22.642C22.1929 16.3659 21.1722 18.2294 19.7001 19.703C18.2279 21.1766 16.3655 22.1991 14.332 22.6502L14.3347 22.6557Z" fill="#353A40"/>
</svg>
