<svg width="24" height="24" viewBox="0 0 24 24" fill="none" xmlns="http://www.w3.org/2000/svg">
<path d="M23.0947 12.0277C23.0947 11.7127 23.2522 11.2401 23.4885 10.7675C23.8036 10.0586 24.1187 9.19221 23.8036 8.32579C23.4885 7.45938 22.7009 6.98679 21.992 6.5142C21.5982 6.27791 21.2044 6.04161 20.9681 5.72655C20.7318 5.49026 20.653 5.01767 20.4955 4.54508C20.2592 3.75743 20.0229 2.89102 19.314 2.33966C18.5264 1.94584 17.5812 2.0246 16.7935 2.0246C16.3209 2.0246 15.7696 2.10337 15.4545 1.94584C15.1395 1.86707 14.7456 1.55202 14.4306 1.23696C13.7217 0.764367 13.0128 0.213013 12.0676 0.213013C11.1225 0.213013 10.4136 0.764367 9.70469 1.31572C9.31087 1.63078 8.99581 1.86707 8.68075 2.0246C8.36569 2.10337 7.81434 2.10337 7.34175 2.10337C6.5541 2.10337 5.60892 2.0246 4.82127 2.49719C4.03362 3.04855 3.79733 3.91496 3.6398 4.70261C3.48227 5.09643 3.4035 5.56902 3.16721 5.80532C3.00968 6.04161 2.53709 6.35667 2.14327 6.59297C1.43438 7.06556 0.646733 7.53814 0.331674 8.40456C0.0166143 9.27097 0.410439 10.0586 0.646733 10.8463C0.883028 11.2401 1.04056 11.7127 1.04056 12.0277C1.04056 12.3428 0.883028 12.8154 0.646733 13.288C0.331674 13.9969 0.0166143 14.8633 0.331674 15.7297C0.646733 16.5961 1.43438 17.0687 2.14327 17.5413C2.53709 17.7776 2.93091 18.0139 3.16721 18.3289C3.4035 18.5652 3.48227 19.0378 3.6398 19.5104C3.87609 20.2981 4.11239 21.1645 4.90004 21.7158C5.60892 22.2672 6.5541 22.1884 7.42051 22.1096C7.8931 22.1096 8.44445 22.0309 8.75951 22.1884C9.07457 22.2672 9.4684 22.5822 9.78346 22.8973C10.4136 23.3699 11.2012 24 12.1464 24C13.0916 24 13.8005 23.4486 14.5093 22.8973C14.9032 22.5822 15.2182 22.3459 15.5333 22.1884C15.8484 22.1096 16.3997 22.1096 16.8723 22.1096C17.6599 22.1096 18.6051 22.1884 19.3928 21.7158C20.1804 21.1645 20.4167 20.2981 20.5742 19.5104C20.7318 19.0378 20.8105 18.644 21.0468 18.3289C21.2044 18.0926 21.677 17.7776 22.0708 17.5413C22.7797 17.0687 23.5673 16.5961 23.8824 15.7297C24.1974 14.8633 23.8036 14.0756 23.5673 13.288C23.2522 12.8154 23.0947 12.3428 23.0947 12.0277ZM21.992 13.8393C22.2283 14.3907 22.3858 14.8633 22.3071 15.1783C22.2283 15.4934 21.677 15.8085 21.2044 16.1235C20.653 16.4386 20.1017 16.7536 19.7866 17.305C19.3928 17.7776 19.2352 18.4077 19.0777 18.959C18.9202 19.5104 18.7627 20.0618 18.4476 20.2981C18.1325 20.5343 17.5024 20.4556 16.9511 20.4556C16.3209 20.4556 15.6908 20.3768 15.0607 20.6131C14.5093 20.7706 13.958 21.1645 13.4854 21.5583C13.0128 21.9521 12.5402 22.3459 12.1464 22.3459C11.7526 22.3459 11.28 21.9521 10.8074 21.5583C10.3348 21.1645 9.86222 20.7706 9.2321 20.6131C8.83828 20.5343 8.44445 20.4556 8.05063 20.4556C7.81434 20.4556 7.57804 20.4556 7.34175 20.4556C6.71163 20.4556 6.16027 20.5343 5.84521 20.2981C5.53015 20.0618 5.37262 19.5104 5.2151 18.959C5.05757 18.4077 4.90004 17.7776 4.50621 17.305C4.11239 16.8324 3.56103 16.5173 3.08844 16.1235C2.45833 15.8085 1.98574 15.4934 1.82821 15.1783C1.74944 14.8633 1.90697 14.3119 2.14327 13.8393C2.37956 13.288 2.61585 12.6579 2.61585 12.0277C2.61585 11.3976 2.37956 10.7675 2.14327 10.2161C1.98574 9.6648 1.74944 9.19221 1.82821 8.87715C1.90697 8.56209 2.45833 8.24703 2.93091 7.93197C3.48227 7.61691 3.95486 7.30185 4.34868 6.7505C4.82127 6.27791 4.9788 5.64779 5.13633 5.09643C5.29386 4.54508 5.45139 3.99373 5.76645 3.75743C6.08151 3.52114 6.71163 3.5999 7.26298 3.5999C7.8931 3.5999 8.52322 3.67867 9.15334 3.44237C9.70469 3.28484 10.256 2.89102 10.7286 2.49719C11.2012 2.10337 11.6738 1.70955 12.0676 1.70955C12.4615 1.70955 12.9341 2.10337 13.4066 2.49719C13.8792 2.89102 14.3518 3.28484 14.9819 3.44237C15.6121 3.5999 16.2422 3.5999 16.8723 3.5999C17.5024 3.5999 18.0538 3.52114 18.3688 3.75743C18.6839 3.99373 18.8414 4.54508 18.9989 5.09643C19.1565 5.64779 19.314 6.27791 19.7078 6.7505C20.1017 7.22309 20.653 7.53814 21.1256 7.93197C21.5982 8.24703 22.1495 8.56209 22.2283 8.87715C22.3071 9.19221 22.1495 9.74356 21.9132 10.2161C21.7557 10.7675 21.5194 11.3976 21.5194 12.0277C21.5194 12.6579 21.7557 13.288 21.992 13.8393Z" fill="#353A40"/>
<path d="M8.91709 10.4524C9.78711 10.4524 10.4924 9.74713 10.4924 8.87712C10.4924 8.0071 9.78711 7.30182 8.91709 7.30182C8.04708 7.30182 7.3418 8.0071 7.3418 8.87712C7.3418 9.74713 8.04708 10.4524 8.91709 10.4524Z" fill="#353A40"/>
<path d="M15.2179 16.7536C16.0879 16.7536 16.7932 16.0483 16.7932 15.1783C16.7932 14.3083 16.0879 13.603 15.2179 13.603C14.3479 13.603 13.6426 14.3083 13.6426 15.1783C13.6426 16.0483 14.3479 16.7536 15.2179 16.7536Z" fill="#353A40"/>
<path d="M14.8242 7.38062C14.4304 7.14432 13.9578 7.30185 13.7215 7.61691L8.99561 15.4934C8.75931 15.8872 8.91684 16.3598 9.2319 16.5961C9.38943 16.7536 9.54696 16.7536 9.70449 16.7536C9.94079 16.7536 10.2558 16.5961 10.4134 16.3598L15.1393 8.48333C15.2968 8.0895 15.218 7.61691 14.8242 7.38062Z" fill="#353A40"/>
</svg>
