<?xml version="1.0" encoding="utf-8"?>
<!-- Generator: Adobe Illustrator 25.2.3, SVG Export Plug-In . SVG Version: 6.00 Build 0)  -->
<svg version="1.1" id="Capa_1" xmlns="http://www.w3.org/2000/svg" xmlns:xlink="http://www.w3.org/1999/xlink" x="0px" y="0px"
	 viewBox="0 0 24 24" style="enable-background:new 0 0 24 24;" xml:space="preserve">
<style type="text/css">
	.st0{fill:#353A40;}
</style>
<path class="st0" d="M12,0C5.4,0,0,5.4,0,12c0,6.6,5.4,12,12,12c6.6,0,12-5.4,12-12C24,5.4,18.6,0,12,0z M12,23
	c-2.7,0-5.1-0.9-7-2.5c0.8-2.1,2.8-3.6,5.1-3.6h3.7c2.3,0,4.4,1.5,5.1,3.6C17.1,22,14.6,23,12,23z M19.8,19.8
	c-1-2.3-3.4-3.9-5.9-3.9h-3.7c-2.6,0-4.9,1.6-5.9,3.9C2.2,17.8,1,15,1,12C1,5.9,5.9,1,12,1c6.1,0,11,4.9,11,11
	C23,15,21.8,17.8,19.8,19.8z"/>
<path class="st0" d="M12,5.8c-2.6,0-4.8,2.1-4.8,4.8c0,2.6,2.1,4.8,4.8,4.8c2.6,0,4.8-2.1,4.8-4.8C16.8,8,14.6,5.8,12,5.8z M12,14.4
	c-2.1,0-3.8-1.7-3.8-3.8c0-2.1,1.7-3.8,3.8-3.8c2.1,0,3.8,1.7,3.8,3.8C15.8,12.7,14.1,14.4,12,14.4z"/>
</svg>
