<svg width="17" height="11" viewBox="0 0 17 11" fill="none" xmlns="http://www.w3.org/2000/svg">
<path fill-rule="evenodd" clip-rule="evenodd" d="M17 5.50002C13.2 -1.79998 3.8 -1.79998 0 5.50002C3.8 12.8 13.2 12.8 17 5.50002ZM8.5 9.00002C10.4 9.00002 12 7.40002 12 5.50002C12 3.60002 10.4 2.00002 8.5 2.00002C6.6 2.00002 5 3.60002 5 5.50002C5 7.40002 6.6 9.00002 8.5 9.00002ZM8.5 7.50002C7.4 7.50002 6.5 6.60002 6.5 5.50002C6.5 4.40002 7.4 3.50002 8.5 3.50002C9.6 3.50002 10.5 4.40002 10.5 5.50002C10.5 6.60002 9.6 7.50002 8.5 7.50002Z" fill="#353A40"/>
</svg>
