<?xml version="1.0" encoding="utf-8"?>
<!-- Generator: Adobe Illustrator 25.2.3, SVG Export Plug-In . SVG Version: 6.00 Build 0)  -->
<svg version="1.1" id="Capa_1" xmlns="http://www.w3.org/2000/svg" xmlns:xlink="http://www.w3.org/1999/xlink" x="0px" y="0px"
	 viewBox="0 0 24 30" style="enable-background:new 0 0 24 30;" xml:space="preserve">
<style type="text/css">
	.st0{fill-rule:evenodd;clip-rule:evenodd;}
</style>
<path class="st0" d="M21,12.5c-3.8-7.3-13.2-7.3-17,0C7.8,19.8,17.2,19.8,21,12.5z M12.5,16c1.9,0,3.5-1.6,3.5-3.5S14.4,9,12.5,9
	S9,10.6,9,12.5S10.6,16,12.5,16z M12.5,14.5c-1.1,0-2-0.9-2-2s0.9-2,2-2s2,0.9,2,2S13.6,14.5,12.5,14.5z"/>
<path class="st0" d="M44.6,8.9c1.1,0.9,2.1,2.1,2.9,3.5c-2.4,4.8-7.3,6.4-11.4,5l1.7-1.7c0.4,0.1,0.8,0.2,1.2,0.2
	c1.9,0,3.5-1.6,3.5-3.5c0-0.4-0.1-0.8-0.2-1.2L44.6,8.9z M41.9,7.4l-1.7,1.7C39.8,9,39.4,8.9,39,8.9c-1.9,0-3.5,1.6-3.5,3.5
	c0,0.4,0.1,0.8,0.2,1.2l-2.3,2.3c-1.1-0.9-2.1-2.1-2.9-3.5C32.9,7.6,37.8,6,41.9,7.4z M32.6,18l12-12l0.7,0.7l-12,12L32.6,18z"/>
</svg>
