<svg width="21" height="21" viewBox="0 0 21 21" fill="none" xmlns="http://www.w3.org/2000/svg">
<path d="M0 21L1.48317 15.6074C0.567948 14.0289 0.0870384 12.2395 0.0879176 10.4046C0.0905551 4.66812 4.78096 0 10.544 0C13.3406 0.000875 15.9658 1.085 17.9405 3.052C19.9142 5.019 21.0009 7.6335 21 10.4143C20.9974 16.1516 16.307 20.8198 10.544 20.8198C8.7944 20.8189 7.07033 20.3823 5.5432 19.5528L0 21V21ZM5.79992 17.6689C7.27342 18.5395 8.6801 19.061 10.5404 19.0619C15.3302 19.0619 19.232 15.1821 19.2346 10.4125C19.2364 5.63325 15.3531 1.75875 10.5475 1.757C5.75421 1.757 1.85506 5.63675 1.8533 10.4055C1.85242 12.3524 2.42565 13.8101 3.38834 15.3352L2.51005 18.5272L5.79992 17.6689V17.6689ZM15.8111 12.8879C15.746 12.7794 15.572 12.7146 15.31 12.5842C15.0489 12.4539 13.7644 11.8247 13.5244 11.7381C13.2852 11.6515 13.1112 11.6078 12.9362 11.8685C12.7621 12.1284 12.261 12.7146 12.1089 12.8879C11.9568 13.0611 11.8038 13.083 11.5427 12.9526C11.2816 12.8223 10.4393 12.5484 9.44147 11.662C8.66516 10.9725 8.14029 10.1211 7.98819 9.86038C7.8361 9.6005 7.97237 9.45963 8.10249 9.33013C8.2203 9.21375 8.3636 9.0265 8.4946 8.87425C8.62735 8.72375 8.67043 8.61525 8.75835 8.44113C8.84539 8.26788 8.80231 8.11563 8.73637 7.98525C8.67043 7.85575 8.1482 6.57563 7.93105 6.055C7.71829 5.54838 7.50289 5.61662 7.34288 5.60875L6.84175 5.6C6.66767 5.6 6.38458 5.66475 6.14544 5.9255C5.9063 6.18625 5.2311 6.8145 5.2311 8.09463C5.2311 9.37475 6.16742 10.6111 6.29754 10.7844C6.42853 10.9576 8.13941 13.5844 10.7602 14.7105C11.3836 14.9783 11.8706 15.1384 12.2496 15.2582C12.8755 15.456 13.4452 15.428 13.8954 15.3615C14.3974 15.2871 15.441 14.7324 15.659 14.1251C15.877 13.517 15.877 12.9964 15.8111 12.8879V12.8879Z" fill="#FBFBFC"/>
</svg>
