<svg width="22" height="25" fill="none" xmlns="http://www.w3.org/2000/svg"><path d="m7.445 16.507-.372.11C3.45 17.664 1.103 20.36.11 24.509l-.109.48h11.429v-.786H1.004c.994-3.668 3.057-5.905 6.288-6.844l.37-.11-.217-.742z" fill="#353A40"/><path d="m13.492 16.507-.218.754.37.109c3.232.939 5.295 3.165 6.289 6.844H9.508V25h11.429l-.11-.48c-.982-4.16-3.34-6.845-6.964-7.892l-.37-.12zM4.105 9.248a1.325 1.325 0 0 0-1.037.623c-.24.37-.338.862-.284 1.44.098 1.092.339 1.889.906 2.315.164.13.371.262.655.305.175.033.371 0 .568-.087.153.513.35.982.578 1.375.6 1.005 1.474 1.801 2.347 2.347.874.546 1.736.863 2.435.863h.393v-.786h-.393c-.437 0-1.234-.251-2.02-.743-.786-.49-1.572-1.211-2.085-2.084-.567-.961-.906-2.5-.96-4.607v-.044c-.033-.273-.131-.524-.339-.71-.218-.163-.491-.218-.764-.207zm.055.786c.13-.01.163.011.174.033.022.022.055.066.077.207.032 1.06.12 1.987.294 2.806-.12.098-.185.098-.25.087-.066-.01-.175-.065-.306-.163-.24-.175-.513-.765-.6-1.758-.044-.459.043-.764.163-.95.131-.185.273-.25.448-.262z" fill="#353A40"/><path d="M16.832 9.248c-.262-.021-.546.044-.743.23-.207.174-.305.436-.338.71v.043c-.055 2.107-.393 3.646-.96 4.606-.514.874-1.3 1.594-2.086 2.085-.786.491-1.582.742-2.02.742h-.392v.787h.393c.699 0 1.56-.317 2.434-.863.873-.546 1.747-1.343 2.347-2.347a6.13 6.13 0 0 0 .579-1.375c.196.076.393.109.567.087.273-.043.48-.185.655-.305.568-.426.808-1.223.906-2.315.055-.578-.043-1.07-.284-1.44a1.418 1.418 0 0 0-1.058-.645zm-.055.786c.175.011.317.088.426.262.12.186.207.492.163.95-.087.993-.36 1.572-.6 1.758a.702.702 0 0 1-.306.163c-.065.011-.12.011-.25-.087.163-.808.261-1.747.294-2.806.022-.141.055-.196.076-.207.044-.022.077-.044.197-.033z" fill="#353A40"/><path d="m7.641 5.308-.338.939c-.437 1.2-1.255 2.248-2.522 3.154l-.316.23.458.633.317-.23c1.091-.786 1.921-1.713 2.456-2.75 1.397 2.38 4.203 3.678 8.252 3.886l.393.021.044-.786-.393-.021c-4.29-.219-6.866-1.616-7.958-4.16l-.393-.916z" fill="#353A40"/><path d="M10.338 1.4c-2.238 0-3.995.917-5.152 2.39C4.029 5.253 3.46 7.25 3.46 9.423v.393h.786v-.393c0-2.041.535-3.853 1.55-5.152 1.015-1.3 2.5-2.085 4.54-2.085h.394V1.4h-.393z" fill="#353A40"/><path d="M10.217 1.4v.786h.393c2.03 0 3.526.797 4.54 2.085 1.016 1.299 1.55 3.11 1.55 5.152v.393h.787v-.393c0-2.172-.568-4.17-1.725-5.633-1.157-1.462-2.915-2.39-5.152-2.39h-.393z" fill="#353A40"/><path d="M12.596.003c-.764.01-1.343.174-1.605.283-.567.24-1.004.655-1.222 1.201l-.142.36.731.295.142-.36c.142-.35.382-.59.797-.764.131-.055 1.037-.306 2.02-.175.982.131 2.095.6 2.947 1.965.698 1.113 1.059 2.107 1.583 2.926.436.676 1.037 1.211 1.964 1.495-.349.371-.698.622-1.037.764-.469.186-.927.186-1.44-.022l-.36-.142-.285.732.36.142c.678.262 1.376.273 2.02.01.644-.261 1.234-.764 1.768-1.484l.393-.524-.654-.098c-1.147-.175-1.616-.59-2.074-1.288-.459-.71-.83-1.725-1.583-2.915C15.936.844 14.572.232 13.415.08a3.056 3.056 0 0 0-.819-.076z" fill="#353A40"/></svg>