<?xml version="1.0" encoding="utf-8"?>
<!-- Generator: Adobe Illustrator 25.2.3, SVG Export Plug-In . SVG Version: 6.00 Build 0)  -->
<svg version="1.1" id="Capa_1" xmlns="http://www.w3.org/2000/svg" xmlns:xlink="http://www.w3.org/1999/xlink" x="0px" y="0px"
	 viewBox="0 0 17 22" style="enable-background:new 0 0 17 22;" xml:space="preserve">
<style type="text/css">
	.st0{fill:#C4C4C4;}
	.st1{fill:#7F8489;}
</style>
<circle class="st0" cx="8" cy="4" r="4"/>
<path class="st1" d="M6.5,15.8c0,0.5-0.1,0.9-0.2,1.3c-0.2,0.4-0.4,0.7-0.6,1c-0.3,0.3-0.6,0.5-1,0.7C4.3,18.9,3.8,19,3.4,19H1v-6.4
	h2.4c0.5,0,0.9,0.1,1.3,0.2c0.4,0.2,0.7,0.4,1,0.7c0.3,0.3,0.5,0.6,0.6,1C6.5,14.9,6.5,15.3,6.5,15.8z M5.6,15.8
	c0-0.4-0.1-0.8-0.2-1.1c-0.1-0.3-0.3-0.6-0.5-0.8c-0.2-0.2-0.4-0.4-0.7-0.5c-0.3-0.1-0.6-0.2-0.9-0.2H1.8v5h1.5
	c0.3,0,0.7-0.1,0.9-0.2C4.6,18,4.8,17.8,5,17.6c0.2-0.2,0.4-0.5,0.5-0.8C5.6,16.5,5.6,16.2,5.6,15.8z M13.3,12.6V19h-0.4
	c-0.1,0-0.1,0-0.2,0c0,0-0.1-0.1-0.1-0.1L8.8,14c0,0.1,0,0.1,0,0.2c0,0.1,0,0.1,0,0.2V19H8v-6.4h0.4c0,0,0.1,0,0.1,0
	c0,0,0.1,0,0.1,0c0,0,0,0,0.1,0c0,0,0,0,0.1,0.1l3.7,4.9c0-0.1,0-0.2,0-0.2c0-0.1,0-0.1,0-0.2v-4.6H13.3z M16,19h-0.9v-6.4H16V19z"
	/>
</svg>
