<?xml version="1.0" encoding="utf-8"?>
<!-- Generator: Adobe Illustrator 25.2.3, SVG Export Plug-In . SVG Version: 6.00 Build 0)  -->
<svg version="1.1" id="Capa_1" xmlns="http://www.w3.org/2000/svg" xmlns:xlink="http://www.w3.org/1999/xlink" x="0px" y="0px"
	 viewBox="0 0 61 22" style="enable-background:new 0 0 61 22;" xml:space="preserve">
<style type="text/css">
	.st0{fill:#C4C4C4;stroke:#C4C4C4;}
	.st1{fill:#7F8489;}
</style>
<circle class="st0" cx="30" cy="4" r="3.5"/>
<path class="st1" d="M6.4,12.6L3.8,19H3l-2.6-6.4h0.7c0.1,0,0.1,0,0.2,0.1c0,0,0.1,0.1,0.1,0.1l1.8,4.5c0,0.1,0.1,0.2,0.1,0.3
	c0,0.1,0.1,0.2,0.1,0.4c0-0.1,0.1-0.3,0.1-0.4c0-0.1,0.1-0.2,0.1-0.3l1.8-4.5c0-0.1,0.1-0.1,0.1-0.1c0.1,0,0.1-0.1,0.2-0.1H6.4z
	 M9.1,16.9c-0.4,0-0.7,0-0.9,0.1c-0.3,0-0.5,0.1-0.6,0.2c-0.2,0.1-0.3,0.2-0.4,0.3c-0.1,0.1-0.1,0.2-0.1,0.3c0,0.1,0,0.2,0.1,0.3
	c0,0.1,0.1,0.2,0.2,0.2c0.1,0.1,0.1,0.1,0.2,0.1c0.1,0,0.2,0,0.3,0c0.1,0,0.3,0,0.4,0c0.1,0,0.2-0.1,0.3-0.1
	c0.1-0.1,0.2-0.1,0.3-0.2C9,18.1,9,18,9.1,17.9V16.9z M6.6,15.1c0.3-0.2,0.5-0.4,0.8-0.5s0.6-0.2,1-0.2c0.3,0,0.5,0,0.7,0.1
	c0.2,0.1,0.4,0.2,0.5,0.4c0.1,0.2,0.2,0.3,0.3,0.5s0.1,0.4,0.1,0.7V19H9.6c-0.1,0-0.1,0-0.2,0c0,0-0.1-0.1-0.1-0.2l-0.1-0.4
	c-0.1,0.1-0.2,0.2-0.4,0.3c-0.1,0.1-0.2,0.2-0.4,0.2C8.4,18.9,8.2,19,8.1,19c-0.1,0-0.3,0-0.5,0c-0.2,0-0.3,0-0.5-0.1
	c-0.2-0.1-0.3-0.1-0.4-0.2c-0.1-0.1-0.2-0.2-0.3-0.4c-0.1-0.2-0.1-0.3-0.1-0.5c0-0.2,0-0.4,0.1-0.5C6.6,17.2,6.7,17,7,16.9
	c0.2-0.1,0.5-0.2,0.9-0.3c0.4-0.1,0.8-0.1,1.3-0.1v-0.4c0-0.4-0.1-0.6-0.2-0.8C8.8,15.1,8.5,15,8.2,15c-0.2,0-0.4,0-0.5,0.1
	c-0.1,0-0.2,0.1-0.3,0.2c-0.1,0.1-0.2,0.1-0.3,0.2c-0.1,0-0.1,0.1-0.2,0.1c-0.1,0-0.1,0-0.1,0c0,0-0.1-0.1-0.1-0.1L6.6,15.1z
	 M12.2,12.4V19h-0.8v-6.6H12.2z M14.6,14.4V19h-0.8v-4.6H14.6z M14.8,13c0,0.1,0,0.2,0,0.2c0,0.1-0.1,0.1-0.1,0.2
	c-0.1,0.1-0.1,0.1-0.2,0.1c-0.1,0-0.1,0-0.2,0s-0.2,0-0.2,0c-0.1,0-0.1-0.1-0.2-0.1c-0.1-0.1-0.1-0.1-0.1-0.2c0-0.1,0-0.1,0-0.2
	s0-0.2,0-0.2c0-0.1,0.1-0.1,0.1-0.2c0.1-0.1,0.1-0.1,0.2-0.1c0.1,0,0.1,0,0.2,0s0.2,0,0.2,0c0.1,0,0.1,0.1,0.2,0.1
	c0.1,0.1,0.1,0.1,0.1,0.2C14.8,12.9,14.8,12.9,14.8,13z M19.2,15.5c-0.1-0.2-0.3-0.3-0.5-0.4C18.5,15,18.3,15,18.1,15
	c-0.4,0-0.7,0.2-1,0.5c-0.2,0.3-0.3,0.7-0.3,1.3c0,0.3,0,0.6,0.1,0.8c0.1,0.2,0.1,0.4,0.2,0.5c0.1,0.1,0.2,0.2,0.4,0.3
	c0.1,0.1,0.3,0.1,0.5,0.1c0.3,0,0.5-0.1,0.7-0.2c0.2-0.1,0.4-0.3,0.5-0.5V15.5z M20,12.4V19h-0.5c-0.1,0-0.2-0.1-0.2-0.2l-0.1-0.6
	c-0.2,0.2-0.4,0.4-0.7,0.6c-0.2,0.1-0.5,0.2-0.9,0.2c-0.3,0-0.5,0-0.7-0.1c-0.2-0.1-0.4-0.3-0.5-0.4c-0.1-0.2-0.3-0.4-0.3-0.7
	c-0.1-0.3-0.1-0.6-0.1-1c0-0.3,0-0.6,0.1-0.9c0.1-0.3,0.2-0.5,0.4-0.8c0.2-0.2,0.4-0.4,0.6-0.5c0.2-0.1,0.5-0.2,0.8-0.2
	c0.3,0,0.5,0,0.7,0.1c0.2,0.1,0.4,0.2,0.5,0.4v-2.5H20z M23.9,16.9c-0.4,0-0.7,0-0.9,0.1c-0.3,0-0.5,0.1-0.6,0.2
	c-0.2,0.1-0.3,0.2-0.4,0.3c-0.1,0.1-0.1,0.2-0.1,0.3c0,0.1,0,0.2,0.1,0.3c0,0.1,0.1,0.2,0.2,0.2c0.1,0.1,0.1,0.1,0.2,0.1
	c0.1,0,0.2,0,0.3,0c0.1,0,0.3,0,0.4,0c0.1,0,0.2-0.1,0.3-0.1c0.1-0.1,0.2-0.1,0.3-0.2c0.1-0.1,0.2-0.2,0.3-0.3V16.9z M21.4,15.1
	c0.3-0.2,0.5-0.4,0.8-0.5c0.3-0.1,0.6-0.2,1-0.2c0.3,0,0.5,0,0.7,0.1c0.2,0.1,0.4,0.2,0.5,0.4c0.1,0.2,0.2,0.3,0.3,0.5
	s0.1,0.4,0.1,0.7V19h-0.4c-0.1,0-0.1,0-0.2,0c0,0-0.1-0.1-0.1-0.2L24,18.4c-0.1,0.1-0.2,0.2-0.4,0.3c-0.1,0.1-0.2,0.2-0.4,0.2
	C23.2,18.9,23,19,22.9,19c-0.1,0-0.3,0-0.5,0c-0.2,0-0.3,0-0.5-0.1c-0.2-0.1-0.3-0.1-0.4-0.2c-0.1-0.1-0.2-0.2-0.3-0.4
	c-0.1-0.2-0.1-0.3-0.1-0.5c0-0.2,0-0.4,0.1-0.5c0.1-0.2,0.3-0.3,0.5-0.4s0.5-0.2,0.9-0.3c0.4-0.1,0.8-0.1,1.3-0.1v-0.4
	c0-0.4-0.1-0.6-0.2-0.8C23.6,15.1,23.3,15,23,15c-0.2,0-0.4,0-0.5,0.1c-0.1,0-0.2,0.1-0.3,0.2c-0.1,0.1-0.2,0.1-0.3,0.2
	c-0.1,0-0.1,0.1-0.2,0.1c-0.1,0-0.1,0-0.1,0c0,0-0.1-0.1-0.1-0.1L21.4,15.1z M27,15.4c0.1-0.3,0.3-0.6,0.5-0.7
	c0.2-0.2,0.5-0.3,0.8-0.3c0.1,0,0.2,0,0.3,0c0.1,0,0.2,0.1,0.2,0.1l-0.1,0.6c0,0.1-0.1,0.1-0.1,0.1c0,0-0.1,0-0.2,0
	c-0.1,0-0.2,0-0.3,0c-0.1,0-0.3,0-0.4,0.1c-0.1,0-0.2,0.1-0.3,0.2c-0.1,0.1-0.2,0.2-0.2,0.3c-0.1,0.1-0.1,0.3-0.2,0.4V19h-0.8v-4.6
	h0.5c0.1,0,0.1,0,0.2,0c0,0,0.1,0.1,0.1,0.2L27,15.4z M36.8,17.7c0,0,0.1,0,0.1,0.1l0.3,0.4c-0.3,0.3-0.6,0.5-1,0.7
	c-0.4,0.2-0.8,0.3-1.4,0.3c-0.5,0-0.9-0.1-1.3-0.2c-0.4-0.2-0.7-0.4-1-0.7c-0.3-0.3-0.5-0.6-0.6-1c-0.1-0.4-0.2-0.9-0.2-1.3
	s0.1-0.9,0.2-1.3c0.2-0.4,0.4-0.8,0.6-1c0.3-0.3,0.6-0.5,1-0.7c0.4-0.2,0.8-0.2,1.3-0.2c0.5,0,0.9,0.1,1.2,0.2
	c0.4,0.1,0.7,0.3,0.9,0.6l-0.3,0.4c0,0,0,0.1-0.1,0.1c0,0-0.1,0-0.1,0c-0.1,0-0.1,0-0.2-0.1c-0.1-0.1-0.2-0.1-0.3-0.2
	c-0.1-0.1-0.3-0.1-0.5-0.2c-0.2-0.1-0.4-0.1-0.7-0.1c-0.3,0-0.6,0.1-0.9,0.2c-0.3,0.1-0.5,0.3-0.7,0.5c-0.2,0.2-0.4,0.5-0.5,0.8
	c-0.1,0.3-0.2,0.7-0.2,1.1c0,0.4,0.1,0.8,0.2,1.1c0.1,0.3,0.3,0.6,0.5,0.8c0.2,0.2,0.4,0.4,0.7,0.5c0.3,0.1,0.6,0.2,0.9,0.2
	c0.2,0,0.4,0,0.5,0c0.2,0,0.3-0.1,0.4-0.1c0.1,0,0.3-0.1,0.4-0.2c0.1-0.1,0.2-0.2,0.3-0.3C36.7,17.7,36.7,17.7,36.8,17.7z
	 M41.3,16.2c0-0.2,0-0.4-0.1-0.5c-0.1-0.2-0.1-0.3-0.2-0.4c-0.1-0.1-0.2-0.2-0.4-0.3C40.5,15,40.3,15,40.1,15
	c-0.4,0-0.7,0.1-0.9,0.3c-0.2,0.2-0.4,0.5-0.4,0.9H41.3z M42,18.4c-0.1,0.1-0.2,0.2-0.4,0.3c-0.1,0.1-0.3,0.2-0.4,0.2
	C41,18.9,40.8,19,40.7,19c-0.2,0-0.3,0-0.5,0c-0.3,0-0.6-0.1-0.9-0.2c-0.3-0.1-0.5-0.3-0.7-0.5c-0.2-0.2-0.3-0.5-0.4-0.8
	C38,17.4,38,17,38,16.6c0-0.3,0-0.6,0.1-0.9c0.1-0.3,0.2-0.5,0.4-0.7c0.2-0.2,0.4-0.4,0.7-0.5c0.3-0.1,0.6-0.2,0.9-0.2
	c0.3,0,0.5,0,0.8,0.1c0.2,0.1,0.4,0.2,0.6,0.4c0.2,0.2,0.3,0.4,0.4,0.6c0.1,0.3,0.1,0.5,0.1,0.9c0,0.1,0,0.2,0,0.3s-0.1,0.1-0.2,0.1
	h-3c0,0.3,0,0.5,0.1,0.8c0.1,0.2,0.2,0.4,0.3,0.5c0.1,0.1,0.3,0.2,0.5,0.3c0.2,0.1,0.4,0.1,0.6,0.1c0.2,0,0.4,0,0.5-0.1
	c0.1,0,0.3-0.1,0.4-0.2c0.1-0.1,0.2-0.1,0.3-0.1c0.1,0,0.1-0.1,0.2-0.1c0.1,0,0.1,0,0.2,0.1L42,18.4z M44.1,12.4V19h-0.8v-6.6H44.1z
	 M49.4,14.4V19h-0.5c-0.1,0-0.2-0.1-0.2-0.2l-0.1-0.5c-0.2,0.2-0.4,0.4-0.7,0.5c-0.2,0.1-0.5,0.2-0.8,0.2c-0.2,0-0.5,0-0.7-0.1
	c-0.2-0.1-0.3-0.2-0.5-0.4c-0.1-0.2-0.2-0.3-0.3-0.5c-0.1-0.2-0.1-0.4-0.1-0.7v-2.9h0.8v2.9c0,0.3,0.1,0.6,0.2,0.8
	c0.2,0.2,0.4,0.3,0.7,0.3c0.2,0,0.5-0.1,0.7-0.2c0.2-0.1,0.4-0.3,0.6-0.5v-3.4H49.4z M51.7,12.4V19h-0.8v-6.6H51.7z M55.8,16.9
	c-0.4,0-0.7,0-0.9,0.1c-0.3,0-0.5,0.1-0.6,0.2c-0.2,0.1-0.3,0.2-0.4,0.3c-0.1,0.1-0.1,0.2-0.1,0.3c0,0.1,0,0.2,0.1,0.3
	c0,0.1,0.1,0.2,0.2,0.2c0.1,0.1,0.1,0.1,0.2,0.1c0.1,0,0.2,0,0.3,0c0.1,0,0.3,0,0.4,0c0.1,0,0.2-0.1,0.3-0.1
	c0.1-0.1,0.2-0.1,0.3-0.2c0.1-0.1,0.2-0.2,0.3-0.3V16.9z M53.2,15.1c0.3-0.2,0.5-0.4,0.8-0.5s0.6-0.2,1-0.2c0.3,0,0.5,0,0.7,0.1
	c0.2,0.1,0.4,0.2,0.5,0.4c0.1,0.2,0.2,0.3,0.3,0.5s0.1,0.4,0.1,0.7V19h-0.4c-0.1,0-0.1,0-0.2,0c0,0-0.1-0.1-0.1-0.2l-0.1-0.4
	c-0.1,0.1-0.2,0.2-0.4,0.3c-0.1,0.1-0.2,0.2-0.4,0.2C55,18.9,54.8,19,54.7,19c-0.1,0-0.3,0-0.5,0c-0.2,0-0.3,0-0.5-0.1
	c-0.2-0.1-0.3-0.1-0.4-0.2c-0.1-0.1-0.2-0.2-0.3-0.4c-0.1-0.2-0.1-0.3-0.1-0.5c0-0.2,0-0.4,0.1-0.5c0.1-0.2,0.3-0.3,0.5-0.4
	s0.5-0.2,0.9-0.3c0.4-0.1,0.8-0.1,1.3-0.1v-0.4c0-0.4-0.1-0.6-0.2-0.8c-0.2-0.2-0.4-0.3-0.7-0.3c-0.2,0-0.4,0-0.5,0.1
	c-0.1,0-0.2,0.1-0.3,0.2c-0.1,0.1-0.2,0.1-0.3,0.2c-0.1,0-0.1,0.1-0.2,0.1c-0.1,0-0.1,0-0.1,0c0,0-0.1-0.1-0.1-0.1L53.2,15.1z
	 M58.8,15.4c0.1-0.3,0.3-0.6,0.5-0.7c0.2-0.2,0.5-0.3,0.8-0.3c0.1,0,0.2,0,0.3,0c0.1,0,0.2,0.1,0.2,0.1l-0.1,0.6
	c0,0.1-0.1,0.1-0.1,0.1c0,0-0.1,0-0.2,0c-0.1,0-0.2,0-0.3,0c-0.1,0-0.3,0-0.4,0.1c-0.1,0-0.2,0.1-0.3,0.2c-0.1,0.1-0.2,0.2-0.2,0.3
	c-0.1,0.1-0.1,0.3-0.2,0.4V19H58v-4.6h0.5c0.1,0,0.1,0,0.2,0c0,0,0.1,0.1,0.1,0.2L58.8,15.4z"/>
</svg>
