<?xml version="1.0" encoding="utf-8"?>
<!-- Generator: Adobe Illustrator 25.2.3, SVG Export Plug-In . SVG Version: 6.00 Build 0)  -->
<svg version="1.1" id="Capa_1" xmlns="http://www.w3.org/2000/svg" xmlns:xlink="http://www.w3.org/1999/xlink" x="0px" y="0px"
	 viewBox="0 0 100 125" style="enable-background:new 0 0 100 125;" xml:space="preserve">
<style type="text/css">
	.st0{fill:#353A40;}
</style>
<path class="st0" d="M82,5H52c-0.1,0-0.3,0-0.4,0c-0.1,0-0.2,0-0.2,0.1h-0.1c-0.1,0-0.2,0.1-0.3,0.1h-0.1c-0.1,0.1-0.2,0.2-0.3,0.2
	l-18,18c-0.1,0.1-0.2,0.2-0.2,0.3c0,0,0,0-0.1,0.1c0,0.1-0.1,0.2-0.1,0.3v0.1c0,0.1-0.1,0.2-0.1,0.2c0,0.1,0,0.3,0,0.4v10
	c-0.3,0-0.7,0-1,0c-3.3,0-6.5,1.5-8.6,4S19.4,44.7,20,48l3.6,23H16c-3.3,0-6,2.7-6,6v6c0,1.1,0.9,2,2,2h2v8c0,1.1,0.9,2,2,2h30
	c1.1,0,2-0.9,2-2v-8h34c4.4,0,8-3.6,8-8V13C90,8.6,86.4,5,82,5z M50,11.8V19c0,2.2-1.8,4-4,4h-7.2L50,11.8z M25.4,41.6
	C26.8,40,28.8,39,31,39s4.2,0.9,5.6,2.6c1.4,1.6,2,3.8,1.6,5.9L34.3,71h-6.6l-3.9-23.5C23.4,45.4,24,43.2,25.4,41.6z M44,91H18v-6
	h26V91z M48,81H14v-4c0-1.1,0.9-2,2-2h30c1.1,0,2,0.9,2,2V81z M86,77c0,2.2-1.8,4-4,4H52v-4c0-3.3-2.7-6-6-6h-7.6l3.8-22.8
	c0.6-3.3-0.4-6.6-2.5-9.2c-1-1.2-2.3-2.2-3.6-2.8V27h10c4.4,0,8-3.6,8-8V9h28c2.2,0,4,1.8,4,4v64H86z M80,69c0,1.1-0.9,2-2,2H60
	c-1.1,0-2-0.9-2-2s0.9-2,2-2h18C79.1,67,80,67.9,80,69z M80,59c0,1.1-0.9,2-2,2H60c-1.1,0-2-0.9-2-2s0.9-2,2-2h18
	C79.1,57,80,57.9,80,59z M72,40c0-1.7-1.3-3-3-3c-3.9,0-7-3.1-7-7c0-3.2,2.1-5.8,5-6.7V21c0-1.1,0.9-2,2-2s2,0.9,2,2v2.3
	c2.9,0.9,5,3.5,5,6.7c0,1.1-0.9,2-2,2s-2-0.9-2-2c0-1.7-1.3-3-3-3s-3,1.3-3,3c0,1.6,1.3,3,3,3c3.9,0,7,3.1,7,7c0,3.2-2.1,5.8-5,6.7
	V49c0,1.1-0.9,2-2,2s-2-0.9-2-2v-2.3c-2.9-0.9-5-3.5-5-6.7c0-1.1,0.9-2,2-2s2,0.9,2,2c0,1.6,1.3,3,3,3S72,41.6,72,40z"/>
</svg>
