<svg width="21" height="25" viewBox="0 0 21 25" fill="none" xmlns="http://www.w3.org/2000/svg">
<path d="M7.44462 15.6233L7.07348 15.7324C3.44941 16.7804 1.1025 19.4766 0.109159 23.6246L0 24.1049H11.0359H11.4289V23.319H11.0359H0.993344C1.98669 19.6512 4.04978 17.4135 7.28088 16.4747L7.65202 16.3656L7.44462 15.6233Z" fill="#353A40"/>
<path d="M13.4921 15.6233L13.2738 16.3765L13.6449 16.4856C16.876 17.4244 18.9391 19.6512 19.9325 23.3299H9.90078H9.50781V24.1158H9.90078H20.9367L20.8276 23.6355C19.8451 19.4766 17.4873 16.7913 13.8632 15.7434L13.4921 15.6233Z" fill="#353A40"/>
<path d="M4.10503 8.36426C3.69023 8.38609 3.30817 8.61532 3.06803 8.98646C2.82788 9.3576 2.72963 9.84881 2.78421 10.4274C2.88246 11.5189 3.12261 12.3158 3.69023 12.7415C3.85397 12.8725 4.06137 13.0035 4.34518 13.0472C4.51984 13.0799 4.71632 13.0472 4.91281 12.9598C5.06563 13.4729 5.26211 13.9423 5.49135 14.3352C6.09172 15.3395 6.96499 16.1363 7.83826 16.6821C8.71153 17.2279 9.57388 17.5445 10.2725 17.5445H10.6655V16.7586H10.2725C9.83586 16.7586 9.039 16.5075 8.25306 16.0163C7.46712 15.5251 6.68118 14.8046 6.16813 13.9313C5.60051 12.9707 5.26211 11.4316 5.20754 9.32485V9.30302V9.28119C5.17479 9.00829 5.07654 8.75723 4.86914 8.57166C4.65083 8.40792 4.37793 8.35334 4.10503 8.36426ZM4.15961 9.1502C4.2906 9.13928 4.32335 9.16111 4.33427 9.18294C4.3561 9.20478 4.38885 9.24844 4.41068 9.39035C4.44342 10.4492 4.53075 11.377 4.7054 12.1957C4.58533 12.294 4.51984 12.294 4.45434 12.283C4.38885 12.2721 4.27969 12.2176 4.1487 12.1193C3.90855 11.9447 3.63565 11.3552 3.54832 10.3619C3.50466 9.90339 3.59199 9.59775 3.71206 9.41218C3.83214 9.22661 3.98496 9.16111 4.15961 9.1502Z" fill="#353A40"/>
<path d="M16.8316 8.36426C16.5696 8.34243 16.2858 8.40793 16.0893 8.59349C15.8819 8.76815 15.7836 9.03013 15.7509 9.30303V9.32486V9.34669C15.6963 11.4534 15.3579 12.9926 14.7903 13.9532C14.2773 14.8265 13.4913 15.5469 12.7054 16.0381C11.9194 16.5293 11.1226 16.7804 10.6859 16.7804H10.293V17.5663H10.6859C11.3846 17.5663 12.2469 17.2498 13.1202 16.704C13.9934 16.1582 14.8667 15.3613 15.4671 14.3571C15.6963 13.9641 15.8928 13.5056 16.0456 12.9817C16.2421 13.0581 16.4386 13.0908 16.6133 13.069C16.8861 13.0253 17.0936 12.8834 17.2682 12.7634C17.8358 12.3376 18.076 11.5408 18.1742 10.4492C18.2288 9.87065 18.1306 9.37944 17.8904 9.0083C17.6284 8.62624 17.2355 8.39701 16.8316 8.36426ZM16.777 9.1502C16.9516 9.16112 17.0936 9.23753 17.2027 9.41218C17.3228 9.59775 17.4101 9.9034 17.3664 10.3619C17.2791 11.3552 17.0062 11.9337 16.7661 12.1193C16.646 12.2176 16.5368 12.2721 16.4604 12.2831C16.3949 12.294 16.3404 12.294 16.2094 12.1957C16.3731 11.388 16.4713 10.4492 16.5041 9.39035C16.5259 9.24845 16.5587 9.19387 16.5805 9.18295C16.6133 9.16112 16.646 9.13929 16.777 9.1502Z" fill="#353A40"/>
<path d="M7.31377 4.74023L7.09546 5.36244C6.66974 6.55227 5.97112 7.18539 4.87954 7.41462L4.7158 7.44737L4.62847 7.58927C4.41016 7.9495 4.41016 8.38613 4.41016 9.06291V9.45589L5.1961 9.44497V9.052C5.18518 8.54987 5.25068 8.24422 5.27251 8.11323C6.2986 7.82942 7.09546 7.16355 7.59759 6.17021C9.08214 7.44737 11.7674 8.11324 15.6207 8.34247C15.6862 8.60445 15.7299 8.92101 15.7299 9.29215V9.68512H16.5158V9.29215C16.5158 8.73544 16.4394 8.24423 16.2866 7.82942L16.1993 7.58927L15.9482 7.57836C11.6146 7.36004 8.88566 6.49769 7.77224 5.24236L7.31377 4.74023Z" fill="#353A40"/>
<path d="M9.43111 0.00272268C8.95081 0.0136385 8.50326 0.0791334 8.1212 0.188292C6.99687 0.515768 6.21093 1.18163 5.86162 2.13131C4.86828 2.40421 4.126 3.12466 3.74394 4.1835C3.34005 5.31875 3.28548 6.83605 3.53654 8.75724L3.59112 9.15021L4.36615 9.05197L4.31157 8.659C4.07142 6.8033 4.13691 5.39516 4.4753 4.44548C4.8137 3.4958 5.35949 3.0155 6.23276 2.84085L6.47291 2.79718L6.5384 2.56795C6.75672 1.76018 7.30251 1.24713 8.3286 0.952403C9.12546 0.72317 10.4899 0.745001 11.8217 1.10522C13.1534 1.46545 14.4742 2.16406 15.282 3.17924C16.6683 4.91486 16.7993 6.92338 16.5701 8.52801L16.5155 8.91007L17.2905 9.01922L17.3451 8.63717C17.5962 6.90155 17.4433 4.64196 15.8933 2.68802C14.9327 1.48728 13.4809 0.745001 12.0291 0.341114C11.134 0.0900494 10.2389 -0.019109 9.43111 0.00272268Z" fill="#353A40"/>
<path d="M9.72651 12.0647C9.59552 12.0756 9.46453 12.0975 9.33354 12.1411C8.83141 12.283 8.5476 12.6433 8.31836 12.8725C8.08913 13.1017 7.93631 13.2327 7.56517 13.2327L7.33594 13.9423C7.77257 14.2588 8.17646 14.4662 8.56943 14.5535C8.9624 14.6409 9.3772 14.5863 9.69376 14.3789C9.99941 14.1824 10.2505 14.106 10.4797 14.106C10.7199 14.106 10.96 14.1824 11.2547 14.3789C11.4294 14.488 11.5713 14.5863 11.7459 14.6518C11.9206 14.7173 12.128 14.7391 12.3245 14.6954C12.7065 14.5972 13.0013 14.3571 13.6126 13.9423L13.3942 13.2327C13.034 13.2327 12.8812 13.1017 12.641 12.8725C12.4118 12.6433 12.128 12.294 11.6259 12.1411C11.2111 12.0211 10.8072 12.032 10.4688 12.1957C10.2614 12.0866 9.99941 12.0429 9.72651 12.0647ZM9.97758 12.8288C10.0867 12.8397 10.1522 12.8834 10.2177 12.9489L10.4797 13.2L10.7417 12.9489C10.8727 12.8288 11.0364 12.7852 11.4076 12.8943C11.6477 12.9598 11.8224 13.1672 12.0953 13.4292C12.2044 13.5384 12.3463 13.6475 12.4991 13.7458C12.3136 13.8658 12.1935 13.9313 12.1389 13.9423C12.0843 13.9532 12.0953 13.9532 12.0298 13.9313C11.9643 13.9095 11.8551 13.8331 11.6805 13.7239C11.2984 13.4729 10.8945 13.32 10.4797 13.32C10.0649 13.32 9.6501 13.462 9.25713 13.7239C9.11522 13.8113 8.97332 13.844 8.72225 13.7894C8.64584 13.7785 8.56943 13.7458 8.4821 13.713C8.61309 13.6257 8.74408 13.5274 8.84233 13.4292C9.11522 13.1563 9.28988 12.9598 9.53002 12.8943C9.73743 12.8397 9.86842 12.8179 9.97758 12.8288Z" fill="#353A40"/>
</svg>
