<svg width="17" height="13" viewBox="0 0 17 13" fill="none" xmlns="http://www.w3.org/2000/svg">
<path fill-rule="evenodd" clip-rule="evenodd" d="M14.1 2.9C15.2 3.8 16.2 5 17 6.4C14.6 11.2 9.7 12.8 5.6 11.4L7.3 9.7C7.7 9.8 8.1 9.9 8.5 9.9C10.4 9.9 12 8.3 12 6.4C12 6 11.9 5.6 11.8 5.2L14.1 2.9ZM11.4 1.4L9.7 3.1C9.3 3 8.9 2.9 8.5 2.9C6.6 2.9 5 4.5 5 6.4C5 6.8 5.1 7.2 5.2 7.6L2.9 9.9C1.8 9 0.8 7.8 0 6.4C2.4 1.6 7.3 1.19209e-07 11.4 1.4ZM2.1 12L14.1 0L14.8 0.7L2.8 12.7L2.1 12Z" fill="#353A40"/>
</svg>
